<mxfile host="65bd71144e">
    <diagram name="ページ1" id="7_Y-Tg9i2zbtlsunGDCq">
        <mxGraphModel dx="1002" dy="817" grid="1" gridSize="10" guides="1" tooltips="1" connect="1" arrows="1" fold="1" page="1" pageScale="1" pageWidth="827" pageHeight="1169" math="0" shadow="0">
            <root>
                <mxCell id="0"/>
                <mxCell id="1" parent="0"/>
                <mxCell id="uXXOfnyKhS9FJrnYBY_X-1" value="新規登録" style="whiteSpace=wrap;html=1;aspect=fixed;" parent="1" vertex="1">
                    <mxGeometry x="50" y="120" width="80" height="80" as="geometry"/>
                </mxCell>
                <mxCell id="uXXOfnyKhS9FJrnYBY_X-2" value="ログイン" style="whiteSpace=wrap;html=1;aspect=fixed;" parent="1" vertex="1">
                    <mxGeometry x="50" y="10" width="80" height="80" as="geometry"/>
                </mxCell>
                <mxCell id="uXXOfnyKhS9FJrnYBY_X-3" value="自分の服の&lt;div&gt;登録画面&lt;/div&gt;" style="whiteSpace=wrap;html=1;aspect=fixed;" parent="1" vertex="1">
                    <mxGeometry x="340" y="230" width="80" height="80" as="geometry"/>
                </mxCell>
                <mxCell id="uXXOfnyKhS9FJrnYBY_X-4" value="トップページ" style="whiteSpace=wrap;html=1;aspect=fixed;" parent="1" vertex="1">
                    <mxGeometry x="180" y="17" width="140" height="140" as="geometry"/>
                </mxCell>
                <mxCell id="uXXOfnyKhS9FJrnYBY_X-7" value="メイン画面" style="whiteSpace=wrap;html=1;aspect=fixed;" parent="1" vertex="1">
                    <mxGeometry x="360" y="17" width="140" height="140" as="geometry"/>
                </mxCell>
                <mxCell id="uXXOfnyKhS9FJrnYBY_X-10" value="いらない服の投稿画面" style="whiteSpace=wrap;html=1;aspect=fixed;" parent="1" vertex="1">
                    <mxGeometry x="470" y="230" width="80" height="80" as="geometry"/>
                </mxCell>
                <mxCell id="uXXOfnyKhS9FJrnYBY_X-22" value="" style="endArrow=classic;html=1;rounded=0;entryX=0.5;entryY=0;entryDx=0;entryDy=0;" parent="1" edge="1">
                    <mxGeometry width="50" height="50" relative="1" as="geometry">
                        <mxPoint x="379.5" y="310" as="sourcePoint"/>
                        <mxPoint x="379.5" y="370" as="targetPoint"/>
                    </mxGeometry>
                </mxCell>
                <mxCell id="uXXOfnyKhS9FJrnYBY_X-23" value="" style="endArrow=classic;html=1;rounded=0;entryX=0;entryY=0.5;entryDx=0;entryDy=0;exitX=1;exitY=0.5;exitDx=0;exitDy=0;exitPerimeter=0;" parent="1" source="uXXOfnyKhS9FJrnYBY_X-4" target="uXXOfnyKhS9FJrnYBY_X-7" edge="1">
                    <mxGeometry width="50" height="50" relative="1" as="geometry">
                        <mxPoint x="460" y="140" as="sourcePoint"/>
                        <mxPoint x="340" y="260" as="targetPoint"/>
                    </mxGeometry>
                </mxCell>
                <mxCell id="uXXOfnyKhS9FJrnYBY_X-25" value="" style="endArrow=classic;html=1;rounded=0;entryX=1;entryY=0.25;entryDx=0;entryDy=0;" parent="1" target="uXXOfnyKhS9FJrnYBY_X-2" edge="1">
                    <mxGeometry width="50" height="50" relative="1" as="geometry">
                        <mxPoint x="180" y="30" as="sourcePoint"/>
                        <mxPoint x="130" y="30.54" as="targetPoint"/>
                    </mxGeometry>
                </mxCell>
                <mxCell id="uXXOfnyKhS9FJrnYBY_X-26" value="" style="endArrow=classic;html=1;rounded=0;entryX=1.025;entryY=0.144;entryDx=0;entryDy=0;entryPerimeter=0;exitX=-0.014;exitY=0.818;exitDx=0;exitDy=0;exitPerimeter=0;" parent="1" source="uXXOfnyKhS9FJrnYBY_X-4" target="uXXOfnyKhS9FJrnYBY_X-1" edge="1">
                    <mxGeometry width="50" height="50" relative="1" as="geometry">
                        <mxPoint x="310" y="190" as="sourcePoint"/>
                        <mxPoint x="210" y="190" as="targetPoint"/>
                    </mxGeometry>
                </mxCell>
                <mxCell id="uXXOfnyKhS9FJrnYBY_X-28" value="" style="endArrow=classic;html=1;rounded=0;entryX=0;entryY=0.5;entryDx=0;entryDy=0;exitX=0;exitY=0.5;exitDx=0;exitDy=0;" parent="1" source="uXXOfnyKhS9FJrnYBY_X-1" target="uXXOfnyKhS9FJrnYBY_X-2" edge="1">
                    <mxGeometry width="50" height="50" relative="1" as="geometry">
                        <mxPoint x="60" y="210" as="sourcePoint"/>
                        <mxPoint x="110" y="160" as="targetPoint"/>
                        <Array as="points">
                            <mxPoint x="10" y="160"/>
                            <mxPoint x="10" y="50"/>
                        </Array>
                    </mxGeometry>
                </mxCell>
                <mxCell id="uXXOfnyKhS9FJrnYBY_X-29" value="" style="endArrow=classic;html=1;rounded=0;exitX=1;exitY=0.75;exitDx=0;exitDy=0;" parent="1" source="uXXOfnyKhS9FJrnYBY_X-2" edge="1">
                    <mxGeometry width="50" height="50" relative="1" as="geometry">
                        <mxPoint x="200" y="107" as="sourcePoint"/>
                        <mxPoint x="180" y="70" as="targetPoint"/>
                    </mxGeometry>
                </mxCell>
                <mxCell id="uXXOfnyKhS9FJrnYBY_X-37" value="" style="endArrow=classic;html=1;rounded=0;exitX=1;exitY=0.25;exitDx=0;exitDy=0;" parent="1" edge="1">
                    <mxGeometry width="50" height="50" relative="1" as="geometry">
                        <mxPoint x="500" y="41" as="sourcePoint"/>
                        <mxPoint x="590" y="41" as="targetPoint"/>
                    </mxGeometry>
                </mxCell>
                <mxCell id="uXXOfnyKhS9FJrnYBY_X-38" value="" style="endArrow=classic;html=1;rounded=0;entryX=1;entryY=0.093;entryDx=0;entryDy=0;entryPerimeter=0;" parent="1" edge="1">
                    <mxGeometry width="50" height="50" relative="1" as="geometry">
                        <mxPoint x="590" y="70" as="sourcePoint"/>
                        <mxPoint x="500" y="70.01999999999998" as="targetPoint"/>
                    </mxGeometry>
                </mxCell>
                <mxCell id="uXXOfnyKhS9FJrnYBY_X-39" value="&lt;span style=&quot;background-color: initial;&quot;&gt;他ユーザ・&lt;br&gt;服の詳細&lt;/span&gt;" style="whiteSpace=wrap;html=1;aspect=fixed;" parent="1" vertex="1">
                    <mxGeometry x="730" y="17" width="80" height="80" as="geometry"/>
                </mxCell>
                <mxCell id="uXXOfnyKhS9FJrnYBY_X-42" value="" style="endArrow=classic;html=1;rounded=0;exitX=0.5;exitY=1;exitDx=0;exitDy=0;" parent="1" edge="1">
                    <mxGeometry width="50" height="50" relative="1" as="geometry">
                        <mxPoint x="380" y="160" as="sourcePoint"/>
                        <mxPoint x="380" y="230" as="targetPoint"/>
                    </mxGeometry>
                </mxCell>
                <mxCell id="uXXOfnyKhS9FJrnYBY_X-43" value="所持している服の詳細/編集" style="whiteSpace=wrap;html=1;aspect=fixed;" parent="1" vertex="1">
                    <mxGeometry x="340" y="370" width="80" height="80" as="geometry"/>
                </mxCell>
                <mxCell id="uXXOfnyKhS9FJrnYBY_X-46" value="" style="endArrow=classic;html=1;rounded=0;exitX=0.75;exitY=0;exitDx=0;exitDy=0;" parent="1" source="uXXOfnyKhS9FJrnYBY_X-55" edge="1">
                    <mxGeometry width="50" height="50" relative="1" as="geometry">
                        <mxPoint x="610" y="187" as="sourcePoint"/>
                        <mxPoint x="660" y="100" as="targetPoint"/>
                    </mxGeometry>
                </mxCell>
                <mxCell id="uXXOfnyKhS9FJrnYBY_X-47" value="" style="endArrow=classic;html=1;rounded=0;" parent="1" edge="1">
                    <mxGeometry width="50" height="50" relative="1" as="geometry">
                        <mxPoint x="630" y="97" as="sourcePoint"/>
                        <mxPoint x="630" y="120" as="targetPoint"/>
                    </mxGeometry>
                </mxCell>
                <mxCell id="uXXOfnyKhS9FJrnYBY_X-48" value="" style="endArrow=classic;html=1;rounded=0;" parent="1" edge="1">
                    <mxGeometry width="50" height="50" relative="1" as="geometry">
                        <mxPoint x="490" y="157" as="sourcePoint"/>
                        <mxPoint x="490" y="220" as="targetPoint"/>
                    </mxGeometry>
                </mxCell>
                <mxCell id="uXXOfnyKhS9FJrnYBY_X-54" value="タイムライン" style="whiteSpace=wrap;html=1;aspect=fixed;" parent="1" vertex="1">
                    <mxGeometry x="600" y="17" width="80" height="80" as="geometry"/>
                </mxCell>
                <mxCell id="uXXOfnyKhS9FJrnYBY_X-55" value="DM" style="whiteSpace=wrap;html=1;aspect=fixed;" parent="1" vertex="1">
                    <mxGeometry x="600" y="120" width="80" height="80" as="geometry"/>
                </mxCell>
                <mxCell id="uXXOfnyKhS9FJrnYBY_X-58" value="" style="endArrow=classic;html=1;rounded=0;exitX=0.363;exitY=1.019;exitDx=0;exitDy=0;exitPerimeter=0;" parent="1" source="uXXOfnyKhS9FJrnYBY_X-10" edge="1">
                    <mxGeometry width="50" height="50" relative="1" as="geometry">
                        <mxPoint x="500" y="370" as="sourcePoint"/>
                        <mxPoint x="690" y="90" as="targetPoint"/>
                        <Array as="points">
                            <mxPoint x="499" y="350"/>
                            <mxPoint x="710" y="350"/>
                            <mxPoint x="710" y="90"/>
                        </Array>
                    </mxGeometry>
                </mxCell>
                <mxCell id="uXXOfnyKhS9FJrnYBY_X-59" value="" style="endArrow=classic;html=1;rounded=0;exitX=1;exitY=0.75;exitDx=0;exitDy=0;" parent="1" edge="1">
                    <mxGeometry width="50" height="50" relative="1" as="geometry">
                        <mxPoint x="730" y="70" as="sourcePoint"/>
                        <mxPoint x="680" y="70" as="targetPoint"/>
                    </mxGeometry>
                </mxCell>
                <mxCell id="uXXOfnyKhS9FJrnYBY_X-60" value="" style="endArrow=classic;html=1;rounded=0;exitX=1;exitY=0.75;exitDx=0;exitDy=0;" parent="1" edge="1">
                    <mxGeometry width="50" height="50" relative="1" as="geometry">
                        <mxPoint x="680" y="40" as="sourcePoint"/>
                        <mxPoint x="730" y="40" as="targetPoint"/>
                    </mxGeometry>
                </mxCell>
                <mxCell id="uXXOfnyKhS9FJrnYBY_X-61" value="" style="endArrow=classic;html=1;rounded=0;" parent="1" edge="1">
                    <mxGeometry width="50" height="50" relative="1" as="geometry">
                        <mxPoint x="400" y="233" as="sourcePoint"/>
                        <mxPoint x="400" y="161" as="targetPoint"/>
                        <Array as="points">
                            <mxPoint x="400" y="233"/>
                        </Array>
                    </mxGeometry>
                </mxCell>
                <mxCell id="uXXOfnyKhS9FJrnYBY_X-63" value="" style="endArrow=classic;html=1;rounded=0;" parent="1" edge="1">
                    <mxGeometry width="50" height="50" relative="1" as="geometry">
                        <mxPoint x="470" y="227" as="sourcePoint"/>
                        <mxPoint x="470" y="157" as="targetPoint"/>
                    </mxGeometry>
                </mxCell>
                <mxCell id="uXXOfnyKhS9FJrnYBY_X-64" value="" style="endArrow=classic;html=1;rounded=0;" parent="1" edge="1">
                    <mxGeometry width="50" height="50" relative="1" as="geometry">
                        <mxPoint x="500" y="150" as="sourcePoint"/>
                        <mxPoint x="590" y="150" as="targetPoint"/>
                    </mxGeometry>
                </mxCell>
                <mxCell id="uXXOfnyKhS9FJrnYBY_X-65" value="" style="endArrow=classic;html=1;rounded=0;entryX=0.5;entryY=0;entryDx=0;entryDy=0;exitX=0;exitY=0.25;exitDx=0;exitDy=0;" parent="1" edge="1">
                    <mxGeometry width="50" height="50" relative="1" as="geometry">
                        <mxPoint x="590" y="130" as="sourcePoint"/>
                        <mxPoint x="500" y="130" as="targetPoint"/>
                    </mxGeometry>
                </mxCell>
                <mxCell id="2" value="" style="endArrow=classic;html=1;rounded=0;exitX=0;exitY=1;exitDx=0;exitDy=0;entryX=0.638;entryY=-0.05;entryDx=0;entryDy=0;entryPerimeter=0;" edge="1" parent="1" source="uXXOfnyKhS9FJrnYBY_X-7" target="3">
                    <mxGeometry width="50" height="50" relative="1" as="geometry">
                        <mxPoint x="269.5" y="170" as="sourcePoint"/>
                        <mxPoint x="269.5" y="240" as="targetPoint"/>
                    </mxGeometry>
                </mxCell>
                <mxCell id="3" value="プロフィール" style="whiteSpace=wrap;html=1;aspect=fixed;" vertex="1" parent="1">
                    <mxGeometry x="230" y="230" width="80" height="80" as="geometry"/>
                </mxCell>
            </root>
        </mxGraphModel>
    </diagram>
</mxfile>